<svg xmlns="http://www.w3.org/2000/svg" version="1.1" xmlns:xlink="http://www.w3.org/1999/xlink" xmlns:svgjs="http://svgjs.com/svgjs" width="1440" height="560" preserveAspectRatio="none" viewBox="0 0 1440 560"><g mask="url(&quot;#SvgjsMask1368&quot;)" fill="none"><rect width="1440" height="560" x="0" y="0" fill="url(#SvgjsLinearGradient1369)"></rect><use xlink:href="#SvgjsSymbol1376" x="0" y="0"></use><use xlink:href="#SvgjsSymbol1376" x="720" y="0"></use></g><defs><mask id="SvgjsMask1368"><rect width="1440" height="560" fill="#ffffff"></rect></mask><linearGradient x1="15.28%" y1="-39.29%" x2="84.72%" y2="139.29%" gradientUnits="userSpaceOnUse" id="SvgjsLinearGradient1369"><stop stop-color="#0e2a47" offset="0"></stop><stop stop-color="rgba(209, 212, 216, 0.23)" offset="0.84"></stop><stop stop-color="rgba(209, 212, 216, 0.23)" offset="0.95"></stop><stop stop-color="rgba(209, 212, 216, 0.23)" offset="0.98"></stop><stop stop-color="rgba(250, 250, 250, 0.23)" offset="0.98"></stop><stop stop-color="rgba(209, 212, 216, 0.23)" offset="1"></stop></linearGradient><path d="M-1 0 a1 1 0 1 0 2 0 a1 1 0 1 0 -2 0z" id="SvgjsPath1371"></path><path d="M-3 0 a3 3 0 1 0 6 0 a3 3 0 1 0 -6 0z" id="SvgjsPath1375"></path><path d="M-5 0 a5 5 0 1 0 10 0 a5 5 0 1 0 -10 0z" id="SvgjsPath1370"></path><path d="M2 -2 L-2 2z" id="SvgjsPath1373"></path><path d="M6 -6 L-6 6z" id="SvgjsPath1372"></path><path d="M30 -30 L-30 30z" id="SvgjsPath1374"></path></defs><symbol id="SvgjsSymbol1376"><use xlink:href="#SvgjsPath1370" x="30" y="30" stroke="rgba(208, 205, 183, 1)"></use><use xlink:href="#SvgjsPath1371" x="30" y="90" stroke="rgba(208, 205, 183, 1)"></use><use xlink:href="#SvgjsPath1372" x="30" y="150" stroke="rgba(208, 205, 183, 1)"></use><use xlink:href="#SvgjsPath1372" x="30" y="210" stroke="rgba(208, 205, 183, 1)"></use><use xlink:href="#SvgjsPath1370" x="30" y="270" stroke="rgba(208, 205, 183, 1)"></use><use xlink:href="#SvgjsPath1372" x="30" y="330" stroke="rgba(208, 205, 183, 1)"></use><use xlink:href="#SvgjsPath1373" x="30" y="390" stroke="rgba(208, 205, 183, 1)"></use><use xlink:href="#SvgjsPath1372" x="30" y="450" stroke="rgba(208, 205, 183, 1)"></use><use xlink:href="#SvgjsPath1372" x="30" y="510" stroke="rgba(208, 205, 183, 1)"></use><use xlink:href="#SvgjsPath1371" x="30" y="570" stroke="rgba(208, 205, 183, 1)"></use><use xlink:href="#SvgjsPath1374" x="90" y="30" stroke="rgba(208, 205, 183, 1)" stroke-width="3"></use><use xlink:href="#SvgjsPath1370" x="90" y="90" stroke="rgba(208, 205, 183, 1)"></use><use xlink:href="#SvgjsPath1372" x="90" y="150" stroke="rgba(208, 205, 183, 1)"></use><use xlink:href="#SvgjsPath1375" x="90" y="210" stroke="rgba(208, 205, 183, 1)"></use><use xlink:href="#SvgjsPath1372" x="90" y="270" stroke="rgba(208, 205, 183, 1)"></use><use xlink:href="#SvgjsPath1372" x="90" y="330" stroke="rgba(208, 205, 183, 1)"></use><use xlink:href="#SvgjsPath1372" x="90" y="390" stroke="rgba(208, 205, 183, 1)"></use><use xlink:href="#SvgjsPath1371" x="90" y="450" stroke="rgba(208, 205, 183, 1)"></use><use xlink:href="#SvgjsPath1373" x="90" y="510" stroke="rgba(208, 205, 183, 1)"></use><use xlink:href="#SvgjsPath1373" x="90" y="570" stroke="rgba(208, 205, 183, 1)"></use><use xlink:href="#SvgjsPath1370" x="150" y="30" stroke="rgba(208, 205, 183, 1)"></use><use xlink:href="#SvgjsPath1372" x="150" y="90" stroke="rgba(208, 205, 183, 1)"></use><use xlink:href="#SvgjsPath1373" x="150" y="150" stroke="rgba(208, 205, 183, 1)"></use><use xlink:href="#SvgjsPath1373" x="150" y="210" stroke="rgba(208, 205, 183, 1)"></use><use xlink:href="#SvgjsPath1375" x="150" y="270" stroke="rgba(208, 205, 183, 1)"></use><use xlink:href="#SvgjsPath1375" x="150" y="330" stroke="rgba(208, 205, 183, 1)"></use><use xlink:href="#SvgjsPath1370" x="150" y="390" stroke="rgba(208, 205, 183, 1)"></use><use xlink:href="#SvgjsPath1372" x="150" y="450" stroke="rgba(208, 205, 183, 1)"></use><use xlink:href="#SvgjsPath1370" x="150" y="510" stroke="rgba(208, 205, 183, 1)"></use><use xlink:href="#SvgjsPath1373" x="150" y="570" stroke="rgba(208, 205, 183, 1)"></use><use xlink:href="#SvgjsPath1372" x="210" y="30" stroke="rgba(208, 205, 183, 1)"></use><use xlink:href="#SvgjsPath1372" x="210" y="90" stroke="rgba(208, 205, 183, 1)"></use><use xlink:href="#SvgjsPath1372" x="210" y="150" stroke="rgba(208, 205, 183, 1)"></use><use xlink:href="#SvgjsPath1370" x="210" y="210" stroke="rgba(208, 205, 183, 1)"></use><use xlink:href="#SvgjsPath1370" x="210" y="270" stroke="rgba(208, 205, 183, 1)"></use><use xlink:href="#SvgjsPath1372" x="210" y="330" stroke="rgba(208, 205, 183, 1)"></use><use xlink:href="#SvgjsPath1370" x="210" y="390" stroke="rgba(208, 205, 183, 1)"></use><use xlink:href="#SvgjsPath1370" x="210" y="450" stroke="rgba(208, 205, 183, 1)"></use><use xlink:href="#SvgjsPath1375" x="210" y="510" stroke="rgba(208, 205, 183, 1)"></use><use xlink:href="#SvgjsPath1372" x="210" y="570" stroke="rgba(208, 205, 183, 1)"></use><use xlink:href="#SvgjsPath1373" x="270" y="30" stroke="rgba(208, 205, 183, 1)"></use><use xlink:href="#SvgjsPath1372" x="270" y="90" stroke="rgba(208, 205, 183, 1)"></use><use xlink:href="#SvgjsPath1372" x="270" y="150" stroke="rgba(208, 205, 183, 1)"></use><use xlink:href="#SvgjsPath1372" x="270" y="210" stroke="rgba(208, 205, 183, 1)"></use><use xlink:href="#SvgjsPath1373" x="270" y="270" stroke="rgba(208, 205, 183, 1)"></use><use xlink:href="#SvgjsPath1372" x="270" y="330" stroke="rgba(208, 205, 183, 1)"></use><use xlink:href="#SvgjsPath1370" x="270" y="390" stroke="rgba(208, 205, 183, 1)"></use><use xlink:href="#SvgjsPath1373" x="270" y="450" stroke="rgba(208, 205, 183, 1)"></use><use xlink:href="#SvgjsPath1372" x="270" y="510" stroke="rgba(208, 205, 183, 1)"></use><use xlink:href="#SvgjsPath1370" x="270" y="570" stroke="rgba(208, 205, 183, 1)"></use><use xlink:href="#SvgjsPath1370" x="330" y="30" stroke="rgba(208, 205, 183, 1)"></use><use xlink:href="#SvgjsPath1372" x="330" y="90" stroke="rgba(208, 205, 183, 1)"></use><use xlink:href="#SvgjsPath1374" x="330" y="150" stroke="rgba(208, 205, 183, 1)" stroke-width="3"></use><use xlink:href="#SvgjsPath1375" x="330" y="210" stroke="rgba(208, 205, 183, 1)"></use><use xlink:href="#SvgjsPath1370" x="330" y="270" stroke="rgba(208, 205, 183, 1)"></use><use xlink:href="#SvgjsPath1372" x="330" y="330" stroke="rgba(208, 205, 183, 1)"></use><use xlink:href="#SvgjsPath1373" x="330" y="390" stroke="rgba(208, 205, 183, 1)"></use><use xlink:href="#SvgjsPath1370" x="330" y="450" stroke="rgba(208, 205, 183, 1)"></use><use xlink:href="#SvgjsPath1370" x="330" y="510" stroke="rgba(208, 205, 183, 1)"></use><use xlink:href="#SvgjsPath1373" x="330" y="570" stroke="rgba(208, 205, 183, 1)"></use><use xlink:href="#SvgjsPath1373" x="390" y="30" stroke="rgba(208, 205, 183, 1)"></use><use xlink:href="#SvgjsPath1370" x="390" y="90" stroke="rgba(208, 205, 183, 1)"></use><use xlink:href="#SvgjsPath1374" x="390" y="150" stroke="rgba(208, 205, 183, 1)" stroke-width="3"></use><use xlink:href="#SvgjsPath1372" x="390" y="210" stroke="rgba(208, 205, 183, 1)"></use><use xlink:href="#SvgjsPath1370" x="390" y="270" stroke="rgba(208, 205, 183, 1)"></use><use xlink:href="#SvgjsPath1374" x="390" y="330" stroke="rgba(208, 205, 183, 1)" stroke-width="3"></use><use xlink:href="#SvgjsPath1370" x="390" y="390" stroke="rgba(208, 205, 183, 1)"></use><use xlink:href="#SvgjsPath1372" x="390" y="450" stroke="rgba(208, 205, 183, 1)"></use><use xlink:href="#SvgjsPath1371" x="390" y="510" stroke="rgba(208, 205, 183, 1)"></use><use xlink:href="#SvgjsPath1375" x="390" y="570" stroke="rgba(208, 205, 183, 1)"></use><use xlink:href="#SvgjsPath1371" x="450" y="30" stroke="rgba(208, 205, 183, 1)"></use><use xlink:href="#SvgjsPath1370" x="450" y="90" stroke="rgba(208, 205, 183, 1)"></use><use xlink:href="#SvgjsPath1373" x="450" y="150" stroke="rgba(208, 205, 183, 1)"></use><use xlink:href="#SvgjsPath1372" x="450" y="210" stroke="rgba(208, 205, 183, 1)"></use><use xlink:href="#SvgjsPath1373" x="450" y="270" stroke="rgba(208, 205, 183, 1)"></use><use xlink:href="#SvgjsPath1375" x="450" y="330" stroke="rgba(208, 205, 183, 1)"></use><use xlink:href="#SvgjsPath1373" x="450" y="390" stroke="rgba(208, 205, 183, 1)"></use><use xlink:href="#SvgjsPath1371" x="450" y="450" stroke="rgba(208, 205, 183, 1)"></use><use xlink:href="#SvgjsPath1370" x="450" y="510" stroke="rgba(208, 205, 183, 1)"></use><use xlink:href="#SvgjsPath1370" x="450" y="570" stroke="rgba(208, 205, 183, 1)"></use><use xlink:href="#SvgjsPath1372" x="510" y="30" stroke="rgba(208, 205, 183, 1)"></use><use xlink:href="#SvgjsPath1370" x="510" y="90" stroke="rgba(208, 205, 183, 1)"></use><use xlink:href="#SvgjsPath1373" x="510" y="150" stroke="rgba(208, 205, 183, 1)"></use><use xlink:href="#SvgjsPath1373" x="510" y="210" stroke="rgba(208, 205, 183, 1)"></use><use xlink:href="#SvgjsPath1372" x="510" y="270" stroke="rgba(208, 205, 183, 1)"></use><use xlink:href="#SvgjsPath1371" x="510" y="330" stroke="rgba(208, 205, 183, 1)"></use><use xlink:href="#SvgjsPath1370" x="510" y="390" stroke="rgba(208, 205, 183, 1)"></use><use xlink:href="#SvgjsPath1370" x="510" y="450" stroke="rgba(208, 205, 183, 1)"></use><use xlink:href="#SvgjsPath1371" x="510" y="510" stroke="rgba(208, 205, 183, 1)"></use><use xlink:href="#SvgjsPath1371" x="510" y="570" stroke="rgba(208, 205, 183, 1)"></use><use xlink:href="#SvgjsPath1370" x="570" y="30" stroke="rgba(208, 205, 183, 1)"></use><use xlink:href="#SvgjsPath1372" x="570" y="90" stroke="rgba(208, 205, 183, 1)"></use><use xlink:href="#SvgjsPath1370" x="570" y="150" stroke="rgba(208, 205, 183, 1)"></use><use xlink:href="#SvgjsPath1370" x="570" y="210" stroke="rgba(208, 205, 183, 1)"></use><use xlink:href="#SvgjsPath1372" x="570" y="270" stroke="rgba(208, 205, 183, 1)"></use><use xlink:href="#SvgjsPath1373" x="570" y="330" stroke="rgba(208, 205, 183, 1)"></use><use xlink:href="#SvgjsPath1370" x="570" y="390" stroke="rgba(208, 205, 183, 1)"></use><use xlink:href="#SvgjsPath1374" x="570" y="450" stroke="rgba(208, 205, 183, 1)" stroke-width="3"></use><use xlink:href="#SvgjsPath1374" x="570" y="510" stroke="rgba(208, 205, 183, 1)" stroke-width="3"></use><use xlink:href="#SvgjsPath1375" x="570" y="570" stroke="rgba(208, 205, 183, 1)"></use><use xlink:href="#SvgjsPath1370" x="630" y="30" stroke="rgba(208, 205, 183, 1)"></use><use xlink:href="#SvgjsPath1372" x="630" y="90" stroke="rgba(208, 205, 183, 1)"></use><use xlink:href="#SvgjsPath1375" x="630" y="150" stroke="rgba(208, 205, 183, 1)"></use><use xlink:href="#SvgjsPath1370" x="630" y="210" stroke="rgba(208, 205, 183, 1)"></use><use xlink:href="#SvgjsPath1373" x="630" y="270" stroke="rgba(208, 205, 183, 1)"></use><use xlink:href="#SvgjsPath1370" x="630" y="330" stroke="rgba(208, 205, 183, 1)"></use><use xlink:href="#SvgjsPath1372" x="630" y="390" stroke="rgba(208, 205, 183, 1)"></use><use xlink:href="#SvgjsPath1373" x="630" y="450" stroke="rgba(208, 205, 183, 1)"></use><use xlink:href="#SvgjsPath1375" x="630" y="510" stroke="rgba(208, 205, 183, 1)"></use><use xlink:href="#SvgjsPath1374" x="630" y="570" stroke="rgba(208, 205, 183, 1)" stroke-width="3"></use><use xlink:href="#SvgjsPath1370" x="690" y="30" stroke="rgba(208, 205, 183, 1)"></use><use xlink:href="#SvgjsPath1372" x="690" y="90" stroke="rgba(208, 205, 183, 1)"></use><use xlink:href="#SvgjsPath1370" x="690" y="150" stroke="rgba(208, 205, 183, 1)"></use><use xlink:href="#SvgjsPath1370" x="690" y="210" stroke="rgba(208, 205, 183, 1)"></use><use xlink:href="#SvgjsPath1372" x="690" y="270" stroke="rgba(208, 205, 183, 1)"></use><use xlink:href="#SvgjsPath1375" x="690" y="330" stroke="rgba(208, 205, 183, 1)"></use><use xlink:href="#SvgjsPath1370" x="690" y="390" stroke="rgba(208, 205, 183, 1)"></use><use xlink:href="#SvgjsPath1370" x="690" y="450" stroke="rgba(208, 205, 183, 1)"></use><use xlink:href="#SvgjsPath1373" x="690" y="510" stroke="rgba(208, 205, 183, 1)"></use><use xlink:href="#SvgjsPath1370" x="690" y="570" stroke="rgba(208, 205, 183, 1)"></use></symbol></svg>
